<svg width="21" height="16" fill="none" xmlns="http://www.w3.org/2000/svg"><path d="M1.167 16c-.33 0-.608-.107-.832-.32A1.055 1.055 0 0 1 0 14.884c0-.316.112-.58.335-.79.224-.212.501-.317.832-.317h12.366c.33 0 .608.107.832.32.223.214.335.479.335.795 0 .316-.112.58-.335.79-.224.211-.501.317-.832.317H1.167Zm0-6.889c-.33 0-.608-.107-.832-.32A1.055 1.055 0 0 1 0 7.996c0-.316.112-.58.335-.79.224-.212.501-.317.832-.317h18.666c.33 0 .608.107.832.32.223.214.335.479.335.795 0 .316-.112.58-.335.79-.224.212-.501.317-.832.317H1.167Zm0-6.889c-.33 0-.608-.107-.832-.32A1.055 1.055 0 0 1 0 1.107c0-.316.112-.58.335-.79C.56.106.836 0 1.167 0h12.366c.33 0 .608.107.832.32.223.214.335.48.335.795 0 .316-.112.58-.335.79-.224.212-.501.317-.832.317H1.167Z" fill="#161616"/></svg>